<?xml version="1.0" encoding="UTF-8"?>

<svg version="1.2" baseProfile="tiny" width="30.5mm" height="30.5mm" viewBox="6750 13700 3050 3050" preserveAspectRatio="xMidYMid" fill-rule="evenodd" stroke-width="28.222" stroke-linejoin="round" xmlns="http://www.w3.org/2000/svg" xmlns:ooo="http://xml.openoffice.org/svg/export" xmlns:xlink="http://www.w3.org/1999/xlink" xml:space="preserve">
 <defs class="ClipPathGroup">
  <clipPath id="presentation_clip_path" clipPathUnits="userSpaceOnUse">
   <rect x="6750" y="13700" width="3050" height="3050"/>
  </clipPath>
 </defs>
 <defs class="TextShapeIndex">
  <g ooo:slide="id1" ooo:id-list="id3"/>
 </defs>
 <defs class="EmbeddedBulletChars">
  <g id="bullet-char-template(57356)" transform="scale(0.00048828125,-0.00048828125)">
   <path d="M 580,1141 L 1163,571 580,0 -4,571 580,1141 Z"/>
  </g>
  <g id="bullet-char-template(57354)" transform="scale(0.00048828125,-0.00048828125)">
   <path d="M 8,1128 L 1137,1128 1137,0 8,0 8,1128 Z"/>
  </g>
  <g id="bullet-char-template(10146)" transform="scale(0.00048828125,-0.00048828125)">
   <path d="M 174,0 L 602,739 174,1481 1456,739 174,0 Z M 1358,739 L 309,1346 659,739 1358,739 Z"/>
  </g>
  <g id="bullet-char-template(10132)" transform="scale(0.00048828125,-0.00048828125)">
   <path d="M 2015,739 L 1276,0 717,0 1260,543 174,543 174,936 1260,936 717,1481 1274,1481 2015,739 Z"/>
  </g>
  <g id="bullet-char-template(10007)" transform="scale(0.00048828125,-0.00048828125)">
   <path d="M 0,-2 C -7,14 -16,27 -25,37 L 356,567 C 262,823 215,952 215,954 215,979 228,992 255,992 264,992 276,990 289,987 310,991 331,999 354,1012 L 381,999 492,748 772,1049 836,1024 860,1049 C 881,1039 901,1025 922,1006 886,937 835,863 770,784 769,783 710,716 594,584 L 774,223 C 774,196 753,168 711,139 L 727,119 C 717,90 699,76 672,76 641,76 570,178 457,381 L 164,-76 C 142,-110 111,-127 72,-127 30,-127 9,-110 8,-76 1,-67 -2,-52 -2,-32 -2,-23 -1,-13 0,-2 Z"/>
  </g>
  <g id="bullet-char-template(10004)" transform="scale(0.00048828125,-0.00048828125)">
   <path d="M 285,-33 C 182,-33 111,30 74,156 52,228 41,333 41,471 41,549 55,616 82,672 116,743 169,778 240,778 293,778 328,747 346,684 L 369,508 C 377,444 397,411 428,410 L 1163,1116 C 1174,1127 1196,1133 1229,1133 1271,1133 1292,1118 1292,1087 L 1292,965 C 1292,929 1282,901 1262,881 L 442,47 C 390,-6 338,-33 285,-33 Z"/>
  </g>
  <g id="bullet-char-template(9679)" transform="scale(0.00048828125,-0.00048828125)">
   <path d="M 813,0 C 632,0 489,54 383,161 276,268 223,411 223,592 223,773 276,916 383,1023 489,1130 632,1184 813,1184 992,1184 1136,1130 1245,1023 1353,916 1407,772 1407,592 1407,412 1353,268 1245,161 1136,54 992,0 813,0 Z"/>
  </g>
  <g id="bullet-char-template(8226)" transform="scale(0.00048828125,-0.00048828125)">
   <path d="M 346,457 C 273,457 209,483 155,535 101,586 74,649 74,723 74,796 101,859 155,911 209,963 273,989 346,989 419,989 480,963 531,910 582,859 608,796 608,723 608,648 583,586 532,535 482,483 420,457 346,457 Z"/>
  </g>
  <g id="bullet-char-template(8211)" transform="scale(0.00048828125,-0.00048828125)">
   <path d="M -4,459 L 1135,459 1135,606 -4,606 -4,459 Z"/>
  </g>
 </defs>
 <defs class="TextEmbeddedBitmaps"/>
 <g class="SlideGroup">
  <g>
   <g id="id1" class="Slide" clip-path="url(#presentation_clip_path)">
    <g class="Page">
     <g class="com.sun.star.drawing.ClosedBezierShape">
      <g id="id3">
       <defs>
        <mask id="mask1">
         <g>
          <defs>
           <linearGradient id="gradient1" x1="8250" y1="13750" x2="8250" y2="16750" gradientUnits="userSpaceOnUse">
            <stop offset="0.5" style="stop-color:rgb(77,77,77)"/>
            <stop offset="0.5" style="stop-color:rgb(77,77,77)"/>
            <stop offset="1" style="stop-color:rgb(77,77,77)"/>
            <stop offset="1" style="stop-color:rgb(77,77,77)"/>
           </linearGradient>
          </defs>
          <path style="fill:url(#gradient1)" d="M 6750,13750 L 9750,13750 9750,16750 6750,16750 6750,13750 Z"/>
         </g>
        </mask>
       </defs>
       <g style="mask:url(#mask1)">
        <path fill="rgb(128,128,128)" stroke="none" d="M 7410,14866 L 7410,14972 7304,14972 7304,15184 7410,15290 7538,15290 7538,15184 7644,15184 7644,15290 7856,15290 7856,15184 7962,15184 7962,15290 8174,15290 8174,15184 8280,15184 8280,15290 8492,15290 8492,15184 8598,15184 8598,15290 8810,15290 8810,15184 8916,15184 8916,15290 9025,15290 9131,15184 9131,15081 9025,15081 9025,15078 9025,14975 9131,14975 9131,14763 9025,14763 9025,14657 9131,14657 9131,14445 9025,14445 9025,14350 9014,14350 9014,14244 8802,14244 8802,14350 8696,14350 8696,14244 8484,14244 8484,14350 8378,14350 8378,14244 8166,14244 8166,14350 8060,14350 8060,14244 7848,14244 7848,14350 7742,14350 7742,14244 7530,14244 7530,14350 7516,14350 7424,14350 7424,14244 7410,14244 7304,14350 7304,14548 7410,14548 7410,14654 7304,14654 7304,14866 7410,14866 Z M 7848,15604 L 7768,15604 7768,15525 7701,15525 C 7689,15525 7677,15526 7665,15529 7654,15531 7643,15535 7633,15540 7614,15549 7596,15562 7580,15577 7565,15593 7552,15611 7543,15630 7538,15640 7534,15651 7532,15662 7529,15674 7528,15686 7528,15698 L 7528,15712 7607,15712 7607,15791 7528,15791 7528,15950 7607,15950 7607,16030 7528,16030 7528,16075 C 7528,16093 7531,16111 7537,16129 7543,16145 7551,16160 7561,16174 7571,16187 7582,16199 7595,16210 7608,16220 7623,16229 7638,16236 L 7669,16163 7669,16163 C 7680,16168 7690,16170 7701,16170 L 7748,16170 7748,16250 7907,16250 7907,16170 7986,16170 7986,16250 8145,16250 8145,16170 8225,16170 8225,16250 8384,16250 8384,16170 8463,16170 8463,16250 8622,16250 8622,16170 8702,16170 8702,16250 8735,16250 C 8755,16250 8775,16245 8795,16238 8812,16231 8828,16221 8842,16209 8857,16197 8869,16184 8879,16169 8890,16153 8899,16135 8904,16117 L 8827,16096 8827,16096 C 8829,16089 8830,16082 8830,16075 L 8830,16016 8910,16016 8910,15857 8830,15857 8830,15778 8910,15778 8910,15698 C 8910,15685 8908,15672 8904,15659 8901,15647 8897,15636 8891,15624 8881,15604 8866,15585 8848,15570 L 8796,15629 8796,15629 C 8778,15614 8757,15604 8735,15604 L 8722,15604 8722,15525 8563,15525 8563,15604 8484,15604 8484,15525 8325,15525 8325,15604 8245,15604 8245,15525 8086,15525 8086,15604 8007,15604 8007,15525 7848,15525 7848,15604 Z M 8931,15649 L 9007,15646 9015,15965 9119,15959 9111,15640 9190,15636 9051,15352 8931,15649 Z M 9019,16102 L 9123,16097 9122,16063 9018,16068 9019,16102 Z M 9017,16034 L 9121,16028 9120,15993 9016,15999 9017,16034 Z M 7207,15650 L 7283,15646 7291,15965 7396,15959 7388,15640 7467,15636 7328,15352 7207,15650 Z M 7295,16103 L 7400,16097 7399,16063 7294,16069 7295,16103 Z M 7293,16034 L 7398,16028 7397,15993 7292,15999 7293,16034 Z M 8250,13750 C 9100,13750 9750,14400 9750,15250 9750,16100 9100,16750 8250,16750 7400,16750 6750,16100 6750,15250 6750,14400 7400,13750 8250,13750 Z"/>
       </g>
       <path fill="rgb(255,61,0)" stroke="none" d="M 7460,14816 L 7460,14922 7354,14922 7354,15134 7460,15240 7588,15240 7588,15134 7694,15134 7694,15240 7906,15240 7906,15134 8012,15134 8012,15240 8224,15240 8224,15134 8330,15134 8330,15240 8542,15240 8542,15134 8648,15134 8648,15240 8860,15240 8860,15134 8966,15134 8966,15240 9075,15240 9181,15134 9181,15031 9075,15031 9075,15028 9075,14925 9181,14925 9181,14713 9075,14713 9075,14607 9181,14607 9181,14395 9075,14395 9075,14300 9064,14300 9064,14194 8852,14194 8852,14300 8746,14300 8746,14194 8534,14194 8534,14300 8428,14300 8428,14194 8216,14194 8216,14300 8110,14300 8110,14194 7898,14194 7898,14300 7792,14300 7792,14194 7580,14194 7580,14300 7566,14300 7474,14300 7474,14194 7460,14194 7354,14300 7354,14498 7460,14498 7460,14604 7354,14604 7354,14816 7460,14816 Z M 7898,15554 L 7818,15554 7818,15475 7751,15475 C 7739,15475 7727,15476 7715,15479 7704,15481 7693,15485 7683,15490 7664,15499 7646,15512 7630,15527 7615,15543 7602,15561 7593,15580 7588,15590 7584,15601 7582,15612 7579,15624 7578,15636 7578,15648 L 7578,15662 7657,15662 7657,15741 7578,15741 7578,15900 7657,15900 7657,15980 7578,15980 7578,16025 C 7578,16043 7581,16061 7587,16079 7593,16095 7601,16110 7611,16124 7621,16137 7632,16149 7645,16160 7658,16170 7673,16179 7688,16186 L 7719,16113 7719,16113 C 7730,16118 7740,16120 7751,16120 L 7798,16120 7798,16200 7957,16200 7957,16120 8036,16120 8036,16200 8195,16200 8195,16120 8275,16120 8275,16200 8434,16200 8434,16120 8513,16120 8513,16200 8672,16200 8672,16120 8752,16120 8752,16200 8785,16200 C 8805,16200 8825,16195 8845,16188 8862,16181 8878,16171 8892,16159 8907,16147 8919,16134 8929,16119 8940,16103 8949,16085 8954,16067 L 8877,16046 8877,16046 C 8879,16039 8880,16032 8880,16025 L 8880,15966 8960,15966 8960,15807 8880,15807 8880,15728 8960,15728 8960,15648 C 8960,15635 8958,15622 8954,15609 8951,15597 8947,15586 8941,15574 8931,15554 8916,15535 8898,15520 L 8846,15579 8846,15579 C 8828,15564 8807,15554 8785,15554 L 8772,15554 8772,15475 8613,15475 8613,15554 8534,15554 8534,15475 8375,15475 8375,15554 8295,15554 8295,15475 8136,15475 8136,15554 8057,15554 8057,15475 7898,15475 7898,15554 Z M 8981,15599 L 9057,15596 9065,15915 9169,15909 9161,15590 9240,15586 9101,15302 8981,15599 Z M 9069,16052 L 9173,16047 9172,16013 9068,16018 9069,16052 Z M 9067,15984 L 9171,15978 9170,15943 9066,15949 9067,15984 Z M 7257,15600 L 7333,15596 7341,15915 7446,15909 7438,15590 7517,15586 7378,15302 7257,15600 Z M 7345,16053 L 7450,16047 7449,16013 7344,16019 7345,16053 Z M 7343,15984 L 7448,15978 7447,15943 7342,15949 7343,15984 Z M 8300,13700 C 9150,13700 9800,14350 9800,15200 9800,16050 9150,16700 8300,16700 7450,16700 6800,16050 6800,15200 6800,14350 7450,13700 8300,13700 Z"/>
      </g>
     </g>
    </g>
   </g>
  </g>
 </g>
</svg>