<?xml version="1.0" encoding="UTF-8"?>

<svg version="1.2" baseProfile="tiny" width="30.5mm" height="30.5mm" viewBox="12650 6000 3050 3050" preserveAspectRatio="xMidYMid" fill-rule="evenodd" stroke-width="28.222" stroke-linejoin="round" xmlns="http://www.w3.org/2000/svg" xmlns:ooo="http://xml.openoffice.org/svg/export" xmlns:xlink="http://www.w3.org/1999/xlink" xml:space="preserve">
 <defs class="ClipPathGroup">
  <clipPath id="presentation_clip_path" clipPathUnits="userSpaceOnUse">
   <rect x="12650" y="6000" width="3050" height="3050"/>
  </clipPath>
 </defs>
 <defs class="TextShapeIndex">
  <g ooo:slide="id1" ooo:id-list="id3"/>
 </defs>
 <defs class="EmbeddedBulletChars">
  <g id="bullet-char-template(57356)" transform="scale(0.00048828125,-0.00048828125)">
   <path d="M 580,1141 L 1163,571 580,0 -4,571 580,1141 Z"/>
  </g>
  <g id="bullet-char-template(57354)" transform="scale(0.00048828125,-0.00048828125)">
   <path d="M 8,1128 L 1137,1128 1137,0 8,0 8,1128 Z"/>
  </g>
  <g id="bullet-char-template(10146)" transform="scale(0.00048828125,-0.00048828125)">
   <path d="M 174,0 L 602,739 174,1481 1456,739 174,0 Z M 1358,739 L 309,1346 659,739 1358,739 Z"/>
  </g>
  <g id="bullet-char-template(10132)" transform="scale(0.00048828125,-0.00048828125)">
   <path d="M 2015,739 L 1276,0 717,0 1260,543 174,543 174,936 1260,936 717,1481 1274,1481 2015,739 Z"/>
  </g>
  <g id="bullet-char-template(10007)" transform="scale(0.00048828125,-0.00048828125)">
   <path d="M 0,-2 C -7,14 -16,27 -25,37 L 356,567 C 262,823 215,952 215,954 215,979 228,992 255,992 264,992 276,990 289,987 310,991 331,999 354,1012 L 381,999 492,748 772,1049 836,1024 860,1049 C 881,1039 901,1025 922,1006 886,937 835,863 770,784 769,783 710,716 594,584 L 774,223 C 774,196 753,168 711,139 L 727,119 C 717,90 699,76 672,76 641,76 570,178 457,381 L 164,-76 C 142,-110 111,-127 72,-127 30,-127 9,-110 8,-76 1,-67 -2,-52 -2,-32 -2,-23 -1,-13 0,-2 Z"/>
  </g>
  <g id="bullet-char-template(10004)" transform="scale(0.00048828125,-0.00048828125)">
   <path d="M 285,-33 C 182,-33 111,30 74,156 52,228 41,333 41,471 41,549 55,616 82,672 116,743 169,778 240,778 293,778 328,747 346,684 L 369,508 C 377,444 397,411 428,410 L 1163,1116 C 1174,1127 1196,1133 1229,1133 1271,1133 1292,1118 1292,1087 L 1292,965 C 1292,929 1282,901 1262,881 L 442,47 C 390,-6 338,-33 285,-33 Z"/>
  </g>
  <g id="bullet-char-template(9679)" transform="scale(0.00048828125,-0.00048828125)">
   <path d="M 813,0 C 632,0 489,54 383,161 276,268 223,411 223,592 223,773 276,916 383,1023 489,1130 632,1184 813,1184 992,1184 1136,1130 1245,1023 1353,916 1407,772 1407,592 1407,412 1353,268 1245,161 1136,54 992,0 813,0 Z"/>
  </g>
  <g id="bullet-char-template(8226)" transform="scale(0.00048828125,-0.00048828125)">
   <path d="M 346,457 C 273,457 209,483 155,535 101,586 74,649 74,723 74,796 101,859 155,911 209,963 273,989 346,989 419,989 480,963 531,910 582,859 608,796 608,723 608,648 583,586 532,535 482,483 420,457 346,457 Z"/>
  </g>
  <g id="bullet-char-template(8211)" transform="scale(0.00048828125,-0.00048828125)">
   <path d="M -4,459 L 1135,459 1135,606 -4,606 -4,459 Z"/>
  </g>
 </defs>
 <defs class="TextEmbeddedBitmaps"/>
 <g class="SlideGroup">
  <g>
   <g id="id1" class="Slide" clip-path="url(#presentation_clip_path)">
    <g class="Page">
     <g class="com.sun.star.drawing.ClosedBezierShape">
      <g id="id3">
       <defs>
        <mask id="mask1">
         <g>
          <defs>
           <linearGradient id="gradient1" x1="14150" y1="6050" x2="14150" y2="9050" gradientUnits="userSpaceOnUse">
            <stop offset="0.5" style="stop-color:rgb(77,77,77)"/>
            <stop offset="0.5" style="stop-color:rgb(77,77,77)"/>
            <stop offset="1" style="stop-color:rgb(77,77,77)"/>
            <stop offset="1" style="stop-color:rgb(77,77,77)"/>
           </linearGradient>
          </defs>
          <path style="fill:url(#gradient1)" d="M 12650,6050 L 15650,6050 15650,9050 12650,9050 12650,6050 Z"/>
         </g>
        </mask>
       </defs>
       <g style="mask:url(#mask1)">
        <path fill="rgb(128,128,128)" stroke="none" d="M 14332,6640 L 15068,7596 15100,7923 14789,7805 14053,6850 14332,6640 Z M 14317,6621 L 14176,6724 14037,6828 14031,6821 14027,6814 14022,6806 14018,6798 14015,6791 14011,6783 14008,6774 14006,6766 14004,6757 14002,6748 14001,6740 14000,6731 14000,6722 14000,6714 14001,6705 14002,6697 14003,6688 14005,6680 14007,6671 14010,6663 14013,6655 14017,6647 14021,6639 14025,6632 14030,6624 14035,6617 14041,6611 14047,6604 14053,6598 14059,6592 14066,6586 14073,6581 14080,6576 14088,6572 14096,6568 14103,6564 14111,6561 14120,6558 14128,6556 14137,6554 14145,6552 14154,6551 14163,6550 14172,6550 14181,6550 14189,6550 14198,6551 14207,6553 14216,6555 14224,6557 14232,6560 14241,6563 14249,6566 14257,6570 14265,6575 14272,6579 14280,6584 14286,6590 14293,6595 14300,6602 14306,6608 14312,6614 14317,6621 Z M 15150,8053 L 15150,8097 C 15147,8097 15145,8097 15142,8098 15139,8099 15136,8100 15133,8102 15125,8107 15117,8114 15109,8123 15088,8146 15070,8177 15051,8207 15029,8243 15007,8278 14983,8304 14969,8320 14953,8333 14938,8342 14928,8348 14919,8352 14909,8355 14898,8358 14887,8360 14876,8360 14865,8360 14854,8358 14842,8355 14831,8352 14820,8347 14809,8340 14799,8335 14788,8327 14778,8318 14768,8309 14757,8299 14747,8288 14727,8265 14705,8237 14682,8200 14660,8166 14636,8123 14611,8072 14595,8043 14580,8018 14564,7997 14550,7978 14535,7962 14519,7951 14506,7940 14492,7932 14477,7927 14464,7922 14450,7920 14436,7920 14415,7920 14394,7925 14374,7932 14350,7940 14327,7952 14303,7965 14253,7995 14201,8035 14151,8075 14097,8117 14044,8159 13993,8190 13965,8207 13938,8221 13911,8231 13882,8242 13853,8248 13825,8248 13804,8248 13783,8245 13762,8237 13743,8230 13723,8219 13704,8204 13687,8190 13670,8171 13654,8148 13638,8127 13624,8101 13610,8071 13590,8027 13571,7991 13553,7961 13536,7933 13520,7911 13505,7893 13498,7886 13491,7879 13485,7874 13479,7869 13474,7865 13468,7862 13464,7860 13460,7858 13456,7857 13453,7856 13449,7855 13446,7855 13443,7855 13440,7856 13437,7857 13434,7858 13430,7859 13426,7861 13417,7866 13408,7873 13399,7881 13376,7902 13355,7931 13333,7959 13309,7991 13284,8023 13258,8047 13242,8061 13227,8073 13210,8081 13201,8086 13191,8090 13182,8092 13171,8095 13161,8097 13150,8097 L 13150,8053 13150,8009 C 13153,8009 13156,8009 13159,8008 13163,8007 13166,8005 13170,8004 13179,7999 13188,7992 13197,7983 13220,7962 13241,7934 13263,7906 13288,7874 13313,7842 13339,7817 13354,7803 13370,7792 13386,7783 13395,7778 13405,7775 13414,7772 13425,7769 13435,7768 13446,7768 13457,7768 13468,7769 13479,7772 13490,7775 13501,7780 13512,7786 13521,7791 13531,7798 13542,7807 13551,7815 13561,7824 13571,7835 13589,7856 13608,7883 13629,7916 13648,7949 13669,7988 13690,8035 13702,8060 13714,8081 13726,8098 13737,8114 13749,8127 13761,8136 13771,8145 13782,8151 13793,8155 13803,8159 13814,8161 13825,8161 13843,8161 13861,8156 13880,8149 13902,8141 13924,8130 13946,8116 13995,8086 14045,8046 14096,8006 14150,7964 14204,7922 14258,7890 14287,7873 14316,7859 14344,7849 14375,7839 14406,7833 14436,7833 14459,7833 14483,7836 14507,7845 14529,7852 14552,7865 14574,7882 14595,7898 14615,7918 14635,7944 14653,7969 14672,7998 14689,8033 14714,8081 14736,8121 14757,8154 14777,8185 14795,8210 14813,8229 14820,8238 14828,8245 14835,8252 14842,8257 14848,8261 14854,8265 14858,8268 14863,8270 14867,8271 14870,8272 14873,8272 14876,8272 14879,8272 14881,8272 14883,8271 14887,8270 14890,8269 14893,8267 14901,8262 14909,8254 14917,8246 14938,8223 14956,8192 14975,8162 14997,8126 15019,8091 15043,8065 15057,8049 15073,8036 15088,8026 15098,8021 15107,8017 15117,8014 15128,8011 15139,8009 15150,8009 L 15150,8053 Z M 14150,6050 C 13300,6050 12650,6700 12650,7550 12650,8400 13300,9050 14150,9050 15000,9050 15650,8400 15650,7550 15650,6700 15000,6050 14150,6050 Z"/>
       </g>
       <path fill="rgb(76,175,80)" stroke="none" d="M 14382,6590 L 15118,7546 15150,7873 14839,7755 14103,6800 14382,6590 Z M 14367,6571 L 14226,6674 14087,6778 14081,6771 14077,6764 14072,6756 14068,6748 14065,6741 14061,6733 14058,6724 14056,6716 14054,6707 14052,6698 14051,6690 14050,6681 14050,6672 14050,6664 14051,6655 14052,6647 14053,6638 14055,6630 14057,6621 14060,6613 14063,6605 14067,6597 14071,6589 14075,6582 14080,6574 14085,6567 14091,6561 14097,6554 14103,6548 14109,6542 14116,6536 14123,6531 14130,6526 14138,6522 14146,6518 14153,6514 14161,6511 14170,6508 14178,6506 14187,6504 14195,6502 14204,6501 14213,6500 14222,6500 14231,6500 14239,6500 14248,6501 14257,6503 14266,6505 14274,6507 14282,6510 14291,6513 14299,6516 14307,6520 14315,6525 14322,6529 14330,6534 14336,6540 14343,6545 14350,6552 14356,6558 14362,6564 14367,6571 Z M 15200,8003 L 15200,8047 C 15197,8047 15195,8047 15192,8048 15189,8049 15186,8050 15183,8052 15175,8057 15167,8064 15159,8073 15138,8096 15120,8127 15101,8157 15079,8193 15057,8228 15033,8254 15019,8270 15003,8283 14988,8292 14978,8298 14969,8302 14959,8305 14948,8308 14937,8310 14926,8310 14915,8310 14904,8308 14892,8305 14881,8302 14870,8297 14859,8290 14849,8285 14838,8277 14828,8268 14818,8259 14807,8249 14797,8238 14777,8215 14755,8187 14732,8150 14710,8116 14686,8073 14661,8022 14645,7993 14630,7968 14614,7947 14600,7928 14585,7912 14569,7901 14556,7890 14542,7882 14527,7877 14514,7872 14500,7870 14486,7870 14465,7870 14444,7875 14424,7882 14400,7890 14377,7902 14353,7915 14303,7945 14251,7985 14201,8025 14147,8067 14094,8109 14043,8140 14015,8157 13988,8171 13961,8181 13932,8192 13903,8198 13875,8198 13854,8198 13833,8195 13812,8187 13793,8180 13773,8169 13754,8154 13737,8140 13720,8121 13704,8098 13688,8077 13674,8051 13660,8021 13640,7977 13621,7941 13603,7911 13586,7883 13570,7861 13555,7843 13548,7836 13541,7829 13535,7824 13529,7819 13524,7815 13518,7812 13514,7810 13510,7808 13506,7807 13503,7806 13499,7805 13496,7805 13493,7805 13490,7806 13487,7807 13484,7808 13480,7809 13476,7811 13467,7816 13458,7823 13449,7831 13426,7852 13405,7881 13383,7909 13359,7941 13334,7973 13308,7997 13292,8011 13277,8023 13260,8031 13251,8036 13241,8040 13232,8042 13221,8045 13211,8047 13200,8047 L 13200,8003 13200,7959 C 13203,7959 13206,7959 13209,7958 13213,7957 13216,7955 13220,7954 13229,7949 13238,7942 13247,7933 13270,7912 13291,7884 13313,7856 13338,7824 13363,7792 13389,7767 13404,7753 13420,7742 13436,7733 13445,7728 13455,7725 13464,7722 13475,7719 13485,7718 13496,7718 13507,7718 13518,7719 13529,7722 13540,7725 13551,7730 13562,7736 13571,7741 13581,7748 13592,7757 13601,7765 13611,7774 13621,7785 13639,7806 13658,7833 13679,7866 13698,7899 13719,7938 13740,7985 13752,8010 13764,8031 13776,8048 13787,8064 13799,8077 13811,8086 13821,8095 13832,8101 13843,8105 13853,8109 13864,8111 13875,8111 13893,8111 13911,8106 13930,8099 13952,8091 13974,8080 13996,8066 14045,8036 14095,7996 14146,7956 14200,7914 14254,7872 14308,7840 14337,7823 14366,7809 14394,7799 14425,7789 14456,7783 14486,7783 14509,7783 14533,7786 14557,7795 14579,7802 14602,7815 14624,7832 14645,7848 14665,7868 14685,7894 14703,7919 14722,7948 14739,7983 14764,8031 14786,8071 14807,8104 14827,8135 14845,8160 14863,8179 14870,8188 14878,8195 14885,8202 14892,8207 14898,8211 14904,8215 14908,8218 14913,8220 14917,8221 14920,8222 14923,8222 14926,8222 14929,8222 14931,8222 14933,8221 14937,8220 14940,8219 14943,8217 14951,8212 14959,8204 14967,8196 14988,8173 15006,8142 15025,8112 15047,8076 15069,8041 15093,8015 15107,7999 15123,7986 15138,7976 15148,7971 15157,7967 15167,7964 15178,7961 15189,7959 15200,7959 L 15200,8003 Z M 14200,6000 C 13350,6000 12700,6650 12700,7500 12700,8350 13350,9000 14200,9000 15050,9000 15700,8350 15700,7500 15700,6650 15050,6000 14200,6000 Z"/>
      </g>
     </g>
    </g>
   </g>
  </g>
 </g>
</svg>