<?xml version="1.0" encoding="UTF-8"?>

<svg version="1.2" baseProfile="tiny" width="30.5mm" height="30.5mm" viewBox="6750 10500 3050 3050" preserveAspectRatio="xMidYMid" fill-rule="evenodd" stroke-width="28.222" stroke-linejoin="round" xmlns="http://www.w3.org/2000/svg" xmlns:ooo="http://xml.openoffice.org/svg/export" xmlns:xlink="http://www.w3.org/1999/xlink" xml:space="preserve">
 <defs class="ClipPathGroup">
  <clipPath id="presentation_clip_path" clipPathUnits="userSpaceOnUse">
   <rect x="6750" y="10500" width="3050" height="3050"/>
  </clipPath>
 </defs>
 <defs class="TextShapeIndex">
  <g ooo:slide="id1" ooo:id-list="id3"/>
 </defs>
 <defs class="EmbeddedBulletChars">
  <g id="bullet-char-template(57356)" transform="scale(0.00048828125,-0.00048828125)">
   <path d="M 580,1141 L 1163,571 580,0 -4,571 580,1141 Z"/>
  </g>
  <g id="bullet-char-template(57354)" transform="scale(0.00048828125,-0.00048828125)">
   <path d="M 8,1128 L 1137,1128 1137,0 8,0 8,1128 Z"/>
  </g>
  <g id="bullet-char-template(10146)" transform="scale(0.00048828125,-0.00048828125)">
   <path d="M 174,0 L 602,739 174,1481 1456,739 174,0 Z M 1358,739 L 309,1346 659,739 1358,739 Z"/>
  </g>
  <g id="bullet-char-template(10132)" transform="scale(0.00048828125,-0.00048828125)">
   <path d="M 2015,739 L 1276,0 717,0 1260,543 174,543 174,936 1260,936 717,1481 1274,1481 2015,739 Z"/>
  </g>
  <g id="bullet-char-template(10007)" transform="scale(0.00048828125,-0.00048828125)">
   <path d="M 0,-2 C -7,14 -16,27 -25,37 L 356,567 C 262,823 215,952 215,954 215,979 228,992 255,992 264,992 276,990 289,987 310,991 331,999 354,1012 L 381,999 492,748 772,1049 836,1024 860,1049 C 881,1039 901,1025 922,1006 886,937 835,863 770,784 769,783 710,716 594,584 L 774,223 C 774,196 753,168 711,139 L 727,119 C 717,90 699,76 672,76 641,76 570,178 457,381 L 164,-76 C 142,-110 111,-127 72,-127 30,-127 9,-110 8,-76 1,-67 -2,-52 -2,-32 -2,-23 -1,-13 0,-2 Z"/>
  </g>
  <g id="bullet-char-template(10004)" transform="scale(0.00048828125,-0.00048828125)">
   <path d="M 285,-33 C 182,-33 111,30 74,156 52,228 41,333 41,471 41,549 55,616 82,672 116,743 169,778 240,778 293,778 328,747 346,684 L 369,508 C 377,444 397,411 428,410 L 1163,1116 C 1174,1127 1196,1133 1229,1133 1271,1133 1292,1118 1292,1087 L 1292,965 C 1292,929 1282,901 1262,881 L 442,47 C 390,-6 338,-33 285,-33 Z"/>
  </g>
  <g id="bullet-char-template(9679)" transform="scale(0.00048828125,-0.00048828125)">
   <path d="M 813,0 C 632,0 489,54 383,161 276,268 223,411 223,592 223,773 276,916 383,1023 489,1130 632,1184 813,1184 992,1184 1136,1130 1245,1023 1353,916 1407,772 1407,592 1407,412 1353,268 1245,161 1136,54 992,0 813,0 Z"/>
  </g>
  <g id="bullet-char-template(8226)" transform="scale(0.00048828125,-0.00048828125)">
   <path d="M 346,457 C 273,457 209,483 155,535 101,586 74,649 74,723 74,796 101,859 155,911 209,963 273,989 346,989 419,989 480,963 531,910 582,859 608,796 608,723 608,648 583,586 532,535 482,483 420,457 346,457 Z"/>
  </g>
  <g id="bullet-char-template(8211)" transform="scale(0.00048828125,-0.00048828125)">
   <path d="M -4,459 L 1135,459 1135,606 -4,606 -4,459 Z"/>
  </g>
 </defs>
 <defs class="TextEmbeddedBitmaps"/>
 <g class="SlideGroup">
  <g>
   <g id="id1" class="Slide" clip-path="url(#presentation_clip_path)">
    <g class="Page">
     <g class="com.sun.star.drawing.ClosedBezierShape">
      <g id="id3">
       <defs>
        <mask id="mask1">
         <g>
          <defs>
           <linearGradient id="gradient1" x1="8250" y1="10550" x2="8250" y2="13550" gradientUnits="userSpaceOnUse">
            <stop offset="0.5" style="stop-color:rgb(77,77,77)"/>
            <stop offset="0.5" style="stop-color:rgb(77,77,77)"/>
            <stop offset="1" style="stop-color:rgb(77,77,77)"/>
            <stop offset="1" style="stop-color:rgb(77,77,77)"/>
           </linearGradient>
          </defs>
          <path style="fill:url(#gradient1)" d="M 6750,10550 L 9750,10550 9750,13550 6750,13550 6750,10550 Z"/>
         </g>
        </mask>
       </defs>
       <g style="mask:url(#mask1)">
        <path fill="rgb(128,128,128)" stroke="none" d="M 7505,11169 C 7474,11157 7440,11150 7404,11150 7369,11150 7335,11157 7304,11169 7274,11182 7246,11200 7223,11223 7200,11246 7182,11273 7169,11304 7157,11334 7150,11368 7150,11403 7150,11439 7157,11473 7169,11503 7182,11534 7200,11561 7223,11584 7246,11607 7274,11625 7304,11638 7335,11650 7369,11657 7404,11657 7440,11657 7474,11650 7505,11638 7535,11625 7563,11607 7586,11584 7608,11561 7627,11534 7639,11503 7652,11473 7659,11439 7659,11403 7659,11368 7652,11334 7639,11304 7627,11273 7608,11246 7586,11223 7563,11200 7535,11182 7505,11169 Z M 7486,11593 C 7461,11603 7434,11608 7404,11608 7375,11608 7348,11603 7323,11593 7298,11582 7276,11568 7258,11549 7239,11531 7225,11509 7215,11485 7204,11460 7199,11433 7199,11403 7199,11374 7204,11347 7215,11322 7225,11298 7239,11276 7258,11257 7276,11239 7298,11224 7323,11214 7348,11204 7375,11199 7404,11199 7434,11199 7461,11204 7486,11214 7511,11224 7533,11239 7551,11257 7569,11276 7584,11298 7594,11322 7605,11347 7610,11374 7610,11403 7610,11433 7605,11460 7594,11485 7584,11509 7569,11531 7551,11549 7533,11568 7511,11582 7486,11593 Z M 7372,11518 C 7392,11518 7409,11510 7422,11494 7421,11497 7425,11501 7434,11508 7443,11515 7453,11518 7465,11518 7482,11518 7493,11512 7500,11498 7507,11484 7513,11467 7518,11446 7518,11443 7517,11439 7515,11437 7513,11434 7510,11432 7506,11432 L 7501,11432 C 7495,11432 7491,11435 7489,11441 7486,11455 7482,11467 7479,11476 7475,11485 7471,11490 7466,11490 7463,11490 7462,11487 7462,11481 7462,11476 7463,11470 7465,11462 L 7494,11345 C 7495,11344 7495,11343 7495,11343 7495,11342 7495,11341 7495,11340 7495,11333 7493,11328 7489,11325 7484,11321 7479,11319 7474,11319 7462,11319 7455,11322 7454,11328 7453,11326 7450,11323 7445,11319 7437,11314 7427,11311 7417,11311 7397,11311 7378,11318 7361,11332 7344,11345 7330,11363 7320,11383 7310,11403 7305,11423 7305,11443 7305,11463 7311,11480 7323,11496 7335,11511 7351,11518 7372,11518 Z M 7454,11331 C 7454,11330 7454,11329 7454,11328 7455,11329 7455,11330 7454,11331 Z M 7372,11490 C 7366,11490 7362,11487 7359,11482 7356,11476 7355,11469 7355,11461 7355,11451 7357,11436 7362,11418 7367,11399 7372,11384 7377,11373 7382,11364 7388,11356 7395,11349 7402,11342 7409,11339 7416,11339 7423,11339 7428,11342 7432,11347 7437,11353 7441,11359 7444,11366 L 7441,11366 7418,11457 C 7412,11466 7405,11474 7397,11480 7388,11487 7380,11490 7372,11490 Z M 7419,11455 C 7423,11458 7423,11459 7418,11458 L 7418,11457 C 7419,11456 7419,11456 7419,11455 Z M 7368,12126 C 7385,12126 7401,12121 7416,12112 7432,12103 7445,12091 7456,12077 7467,12062 7475,12046 7481,12029 7488,12012 7491,11996 7491,11980 7491,11966 7488,11952 7483,11940 7478,11927 7469,11916 7458,11908 7447,11900 7434,11896 7419,11896 7398,11896 7386,11898 7383,11901 L 7410,11796 C 7410,11785 7404,11779 7394,11779 L 7331,11784 C 7327,11784 7323,11785 7321,11788 7319,11791 7317,11794 7317,11796 7316,11799 7315,11801 7315,11803 7315,11814 7320,11820 7329,11820 7342,11818 7349,11818 7350,11817 7350,11819 7349,11823 7348,11828 L 7303,12009 C 7303,12011 7302,12017 7300,12025 7299,12033 7298,12039 7298,12043 7298,12064 7304,12084 7316,12100 7328,12117 7345,12126 7368,12126 Z M 7350,11817 C 7350,11817 7350,11817 7350,11817 7350,11817 7350,11817 7350,11817 Z M 7368,12094 C 7362,12094 7356,12091 7353,12084 7349,12077 7347,12069 7347,12059 7347,12048 7350,12033 7355,12014 L 7367,11963 C 7374,11954 7382,11945 7391,11938 7400,11931 7409,11927 7417,11927 7424,11927 7428,11930 7432,11936 7435,11942 7437,11950 7437,11959 7437,11971 7434,11988 7429,12008 7424,12029 7418,12045 7412,12056 7407,12066 7400,12075 7392,12083 7385,12090 7377,12094 7368,12094 Z M 7368,12950 C 7391,12950 7410,12941 7424,12923 7423,12926 7427,12931 7437,12939 7447,12946 7459,12950 7471,12950 7490,12950 7503,12942 7510,12927 7518,12912 7525,12893 7530,12870 7530,12866 7529,12863 7527,12859 7525,12856 7521,12854 7517,12854 L 7511,12854 C 7504,12854 7500,12858 7498,12864 7494,12880 7491,12893 7486,12903 7482,12913 7478,12918 7472,12918 7470,12918 7468,12915 7468,12908 7468,12900 7469,12893 7471,12889 L 7539,12620 C 7539,12609 7534,12603 7523,12603 L 7460,12608 C 7456,12608 7452,12610 7450,12612 7448,12615 7447,12618 7446,12621 7445,12623 7445,12625 7444,12627 7444,12638 7449,12644 7459,12644 7471,12643 7478,12642 7479,12641 7479,12644 7478,12647 7477,12652 L 7459,12741 C 7459,12738 7455,12734 7449,12729 7440,12723 7430,12720 7419,12720 7396,12720 7375,12728 7356,12743 7337,12759 7322,12777 7311,12800 7300,12823 7295,12845 7295,12866 7295,12888 7301,12908 7314,12925 7327,12942 7345,12950 7368,12950 Z M 7459,12743 L 7459,12741 C 7460,12741 7460,12742 7459,12743 Z M 7479,12641 C 7480,12641 7480,12641 7479,12641 7479,12641 7479,12641 7479,12641 Z M 7368,12918 C 7362,12918 7358,12915 7354,12909 7351,12903 7349,12895 7349,12886 7349,12875 7352,12859 7357,12838 7363,12817 7368,12801 7374,12789 7380,12779 7386,12770 7394,12763 7402,12755 7410,12752 7417,12752 7425,12752 7431,12755 7435,12761 7440,12767 7443,12774 7444,12781 L 7419,12882 C 7412,12892 7405,12900 7396,12907 7387,12915 7377,12918 7368,12918 Z M 7421,12880 C 7425,12883 7425,12884 7419,12883 L 7419,12882 C 7420,12881 7420,12880 7421,12880 Z M 7351,12474 C 7351,12457 7355,12439 7361,12418 7368,12398 7377,12381 7389,12367 7402,12353 7415,12346 7431,12346 7436,12346 7442,12347 7447,12349 7445,12350 7443,12351 7442,12353 7434,12360 7431,12368 7431,12378 7431,12386 7433,12392 7439,12397 7444,12402 7451,12405 7458,12405 7470,12405 7479,12401 7485,12393 7492,12384 7495,12375 7495,12364 7495,12348 7489,12335 7475,12327 7462,12319 7447,12315 7431,12315 7408,12315 7386,12322 7365,12336 7344,12349 7327,12367 7315,12389 7302,12411 7296,12434 7296,12456 7296,12473 7299,12487 7306,12501 7313,12514 7323,12525 7336,12533 7349,12540 7364,12544 7381,12544 7403,12544 7424,12540 7445,12530 7466,12520 7482,12507 7494,12490 7496,12488 7497,12485 7497,12481 7497,12477 7496,12473 7492,12469 7489,12466 7485,12464 7481,12464 7476,12464 7473,12465 7470,12468 7459,12483 7446,12493 7431,12501 7415,12509 7399,12513 7382,12513 7372,12513 7365,12509 7359,12502 7354,12495 7351,12486 7351,12474 Z M 7467,12342 L 7467,12351 C 7460,12352 7454,12351 7448,12349 7448,12349 7447,12349 7447,12349 7453,12344 7460,12342 7467,12342 Z M 7774,11525 L 9250,11525 9250,11505 9250,11484 7774,11484 7774,11505 7774,11525 Z M 7774,11779 L 9250,11779 9250,11758 9250,11738 7774,11738 7774,11758 7774,11779 Z M 7774,12032 L 9250,12032 9250,12012 9250,11991 7774,11991 7774,12012 7774,12032 Z M 7774,12286 L 9250,12286 9250,12265 9250,12245 7774,12245 7774,12265 7774,12286 Z M 7774,12539 L 9250,12539 9250,12519 9250,12498 7774,12498 7774,12519 7774,12539 Z M 7774,12793 L 9250,12793 9250,12772 9250,12752 7774,12752 7774,12772 7774,12793 Z M 8250,10550 C 9100,10550 9750,11200 9750,12050 9750,12900 9100,13550 8250,13550 7400,13550 6750,12900 6750,12050 6750,11200 7400,10550 8250,10550 Z"/>
       </g>
       <path fill="rgb(103,58,183)" stroke="none" d="M 7555,11119 C 7524,11107 7490,11100 7454,11100 7419,11100 7385,11107 7354,11119 7324,11132 7296,11150 7273,11173 7250,11196 7232,11223 7219,11254 7207,11284 7200,11318 7200,11353 7200,11389 7207,11423 7219,11453 7232,11484 7250,11511 7273,11534 7296,11557 7324,11575 7354,11588 7385,11600 7419,11607 7454,11607 7490,11607 7524,11600 7555,11588 7585,11575 7613,11557 7636,11534 7658,11511 7677,11484 7689,11453 7702,11423 7709,11389 7709,11353 7709,11318 7702,11284 7689,11254 7677,11223 7658,11196 7636,11173 7613,11150 7585,11132 7555,11119 Z M 7536,11543 C 7511,11553 7484,11558 7454,11558 7425,11558 7398,11553 7373,11543 7348,11532 7326,11518 7308,11499 7289,11481 7275,11459 7265,11435 7254,11410 7249,11383 7249,11353 7249,11324 7254,11297 7265,11272 7275,11248 7289,11226 7308,11207 7326,11189 7348,11174 7373,11164 7398,11154 7425,11149 7454,11149 7484,11149 7511,11154 7536,11164 7561,11174 7583,11189 7601,11207 7619,11226 7634,11248 7644,11272 7655,11297 7660,11324 7660,11353 7660,11383 7655,11410 7644,11435 7634,11459 7619,11481 7601,11499 7583,11518 7561,11532 7536,11543 Z M 7422,11468 C 7442,11468 7459,11460 7472,11444 7471,11447 7475,11451 7484,11458 7493,11465 7503,11468 7515,11468 7532,11468 7543,11462 7550,11448 7557,11434 7563,11417 7568,11396 7568,11393 7567,11389 7565,11387 7563,11384 7560,11382 7556,11382 L 7551,11382 C 7545,11382 7541,11385 7539,11391 7536,11405 7532,11417 7529,11426 7525,11435 7521,11440 7516,11440 7513,11440 7512,11437 7512,11431 7512,11426 7513,11420 7515,11412 L 7544,11295 C 7545,11294 7545,11293 7545,11293 7545,11292 7545,11291 7545,11290 7545,11283 7543,11278 7539,11275 7534,11271 7529,11269 7524,11269 7512,11269 7505,11272 7504,11278 7503,11276 7500,11273 7495,11269 7487,11264 7477,11261 7467,11261 7447,11261 7428,11268 7411,11282 7394,11295 7380,11313 7370,11333 7360,11353 7355,11373 7355,11393 7355,11413 7361,11430 7373,11446 7385,11461 7401,11468 7422,11468 Z M 7504,11281 C 7504,11280 7504,11279 7504,11278 7505,11279 7505,11280 7504,11281 Z M 7422,11440 C 7416,11440 7412,11437 7409,11432 7406,11426 7405,11419 7405,11411 7405,11401 7407,11386 7412,11368 7417,11349 7422,11334 7427,11323 7432,11314 7438,11306 7445,11299 7452,11292 7459,11289 7466,11289 7473,11289 7478,11292 7482,11297 7487,11303 7491,11309 7494,11316 L 7491,11316 7468,11407 C 7462,11416 7455,11424 7447,11430 7438,11437 7430,11440 7422,11440 Z M 7469,11405 C 7473,11408 7473,11409 7468,11408 L 7468,11407 C 7469,11406 7469,11406 7469,11405 Z M 7418,12076 C 7435,12076 7451,12071 7466,12062 7482,12053 7495,12041 7506,12027 7517,12012 7525,11996 7531,11979 7538,11962 7541,11946 7541,11930 7541,11916 7538,11902 7533,11890 7528,11877 7519,11866 7508,11858 7497,11850 7484,11846 7469,11846 7448,11846 7436,11848 7433,11851 L 7460,11746 C 7460,11735 7454,11729 7444,11729 L 7381,11734 C 7377,11734 7373,11735 7371,11738 7369,11741 7367,11744 7367,11746 7366,11749 7365,11751 7365,11753 7365,11764 7370,11770 7379,11770 7392,11768 7399,11768 7400,11767 7400,11769 7399,11773 7398,11778 L 7353,11959 C 7353,11961 7352,11967 7350,11975 7349,11983 7348,11989 7348,11993 7348,12014 7354,12034 7366,12050 7378,12067 7395,12076 7418,12076 Z M 7400,11767 C 7400,11767 7400,11767 7400,11767 7400,11767 7400,11767 7400,11767 Z M 7418,12044 C 7412,12044 7406,12041 7403,12034 7399,12027 7397,12019 7397,12009 7397,11998 7400,11983 7405,11964 L 7417,11913 C 7424,11904 7432,11895 7441,11888 7450,11881 7459,11877 7467,11877 7474,11877 7478,11880 7482,11886 7485,11892 7487,11900 7487,11909 7487,11921 7484,11938 7479,11958 7474,11979 7468,11995 7462,12006 7457,12016 7450,12025 7442,12033 7435,12040 7427,12044 7418,12044 Z M 7418,12900 C 7441,12900 7460,12891 7474,12873 7473,12876 7477,12881 7487,12889 7497,12896 7509,12900 7521,12900 7540,12900 7553,12892 7560,12877 7568,12862 7575,12843 7580,12820 7580,12816 7579,12813 7577,12809 7575,12806 7571,12804 7567,12804 L 7561,12804 C 7554,12804 7550,12808 7548,12814 7544,12830 7541,12843 7536,12853 7532,12863 7528,12868 7522,12868 7520,12868 7518,12865 7518,12858 7518,12850 7519,12843 7521,12839 L 7589,12570 C 7589,12559 7584,12553 7573,12553 L 7510,12558 C 7506,12558 7502,12560 7500,12562 7498,12565 7497,12568 7496,12571 7495,12573 7495,12575 7494,12577 7494,12588 7499,12594 7509,12594 7521,12593 7528,12592 7529,12591 7529,12594 7528,12597 7527,12602 L 7509,12691 C 7509,12688 7505,12684 7499,12679 7490,12673 7480,12670 7469,12670 7446,12670 7425,12678 7406,12693 7387,12709 7372,12727 7361,12750 7350,12773 7345,12795 7345,12816 7345,12838 7351,12858 7364,12875 7377,12892 7395,12900 7418,12900 Z M 7509,12693 L 7509,12691 C 7510,12691 7510,12692 7509,12693 Z M 7529,12591 C 7530,12591 7530,12591 7529,12591 7529,12591 7529,12591 7529,12591 Z M 7418,12868 C 7412,12868 7408,12865 7404,12859 7401,12853 7399,12845 7399,12836 7399,12825 7402,12809 7407,12788 7413,12767 7418,12751 7424,12739 7430,12729 7436,12720 7444,12713 7452,12705 7460,12702 7467,12702 7475,12702 7481,12705 7485,12711 7490,12717 7493,12724 7494,12731 L 7469,12832 C 7462,12842 7455,12850 7446,12857 7437,12865 7427,12868 7418,12868 Z M 7471,12830 C 7475,12833 7475,12834 7469,12833 L 7469,12832 C 7470,12831 7470,12830 7471,12830 Z M 7401,12424 C 7401,12407 7405,12389 7411,12368 7418,12348 7427,12331 7439,12317 7452,12303 7465,12296 7481,12296 7486,12296 7492,12297 7497,12299 7495,12300 7493,12301 7492,12303 7484,12310 7481,12318 7481,12328 7481,12336 7483,12342 7489,12347 7494,12352 7501,12355 7508,12355 7520,12355 7529,12351 7535,12343 7542,12334 7545,12325 7545,12314 7545,12298 7539,12285 7525,12277 7512,12269 7497,12265 7481,12265 7458,12265 7436,12272 7415,12286 7394,12299 7377,12317 7365,12339 7352,12361 7346,12384 7346,12406 7346,12423 7349,12437 7356,12451 7363,12464 7373,12475 7386,12483 7399,12490 7414,12494 7431,12494 7453,12494 7474,12490 7495,12480 7516,12470 7532,12457 7544,12440 7546,12438 7547,12435 7547,12431 7547,12427 7546,12423 7542,12419 7539,12416 7535,12414 7531,12414 7526,12414 7523,12415 7520,12418 7509,12433 7496,12443 7481,12451 7465,12459 7449,12463 7432,12463 7422,12463 7415,12459 7409,12452 7404,12445 7401,12436 7401,12424 Z M 7517,12292 L 7517,12301 C 7510,12302 7504,12301 7498,12299 7498,12299 7497,12299 7497,12299 7503,12294 7510,12292 7517,12292 Z M 7824,11475 L 9300,11475 9300,11455 9300,11434 7824,11434 7824,11455 7824,11475 Z M 7824,11729 L 9300,11729 9300,11708 9300,11688 7824,11688 7824,11708 7824,11729 Z M 7824,11982 L 9300,11982 9300,11962 9300,11941 7824,11941 7824,11962 7824,11982 Z M 7824,12236 L 9300,12236 9300,12215 9300,12195 7824,12195 7824,12215 7824,12236 Z M 7824,12489 L 9300,12489 9300,12469 9300,12448 7824,12448 7824,12469 7824,12489 Z M 7824,12743 L 9300,12743 9300,12722 9300,12702 7824,12702 7824,12722 7824,12743 Z M 8300,10500 C 9150,10500 9800,11150 9800,12000 9800,12850 9150,13500 8300,13500 7450,13500 6800,12850 6800,12000 6800,11150 7450,10500 8300,10500 Z"/>
      </g>
     </g>
    </g>
   </g>
  </g>
 </g>
</svg>