<?xml version="1.0" encoding="UTF-8" standalone="no"?>
<svg
   xmlns:ooo="http://xml.openoffice.org/svg/export"
   xmlns:dc="http://purl.org/dc/elements/1.1/"
   xmlns:cc="http://creativecommons.org/ns#"
   xmlns:rdf="http://www.w3.org/1999/02/22-rdf-syntax-ns#"
   xmlns:svg="http://www.w3.org/2000/svg"
   xmlns="http://www.w3.org/2000/svg"
   style="fill-rule:evenodd;stroke-width:28.22200012;stroke-linejoin:round"
   id="svg2"
   xml:space="preserve"
   preserveAspectRatio="xMidYMid"
   viewBox="0 0 12428.223 12929.221"
   height="458.12201"
   width="440.37006"
   version="1.2"><metadata
     id="metadata73"><rdf:RDF><cc:Work
         rdf:about=""><dc:format>image/svg+xml</dc:format><dc:type
           rdf:resource="http://purl.org/dc/dcmitype/StillImage" /><dc:title></dc:title></cc:Work></rdf:RDF></metadata><defs
     id="defs4"
     class="ClipPathGroup"><clipPath
       clipPathUnits="userSpaceOnUse"
       id="presentation_clip_path"><rect
         id="rect7"
         height="27940"
         width="21590"
         y="0"
         x="0" /></clipPath></defs><defs
     id="defs9"
     class="TextShapeIndex"><g
       id="g11"
       ooo:id-list="id3"
       ooo:slide="id1" /></defs><defs
     id="defs13"
     class="EmbeddedBulletChars"><g
       transform="scale(4.8828125e-4,-4.8828125e-4)"
       id="bullet-char-template(57356)"><path
         id="path16"
         d="M 580,1141 1163,571 580,0 -4,571 580,1141 Z" /></g><g
       transform="scale(4.8828125e-4,-4.8828125e-4)"
       id="bullet-char-template(57354)"><path
         id="path19"
         d="m 8,1128 1129,0 L 1137,0 8,0 8,1128 Z" /></g><g
       transform="scale(4.8828125e-4,-4.8828125e-4)"
       id="bullet-char-template(10146)"><path
         id="path22"
         d="M 174,0 602,739 174,1481 1456,739 174,0 Z m 1184,739 -1049,607 350,-607 699,0 z" /></g><g
       transform="scale(4.8828125e-4,-4.8828125e-4)"
       id="bullet-char-template(10132)"><path
         id="path25"
         d="M 2015,739 1276,0 717,0 l 543,543 -1086,0 0,393 1086,0 -543,545 557,0 741,-742 z" /></g><g
       transform="scale(4.8828125e-4,-4.8828125e-4)"
       id="bullet-char-template(10007)"><path
         id="path28"
         d="m 0,-2 c -7,16 -16,29 -25,39 l 381,530 c -94,256 -141,385 -141,387 0,25 13,38 40,38 9,0 21,-2 34,-5 21,4 42,12 65,25 l 27,-13 111,-251 280,301 64,-25 24,25 c 21,-10 41,-24 62,-43 C 886,937 835,863 770,784 769,783 710,716 594,584 L 774,223 c 0,-27 -21,-55 -63,-84 l 16,-20 C 717,90 699,76 672,76 641,76 570,178 457,381 L 164,-76 c -22,-34 -53,-51 -92,-51 -42,0 -63,17 -64,51 -7,9 -10,24 -10,44 0,9 1,19 2,30 z" /></g><g
       transform="scale(4.8828125e-4,-4.8828125e-4)"
       id="bullet-char-template(10004)"><path
         id="path31"
         d="M 285,-33 C 182,-33 111,30 74,156 52,228 41,333 41,471 c 0,78 14,145 41,201 34,71 87,106 158,106 53,0 88,-31 106,-94 l 23,-176 c 8,-64 28,-97 59,-98 l 735,706 c 11,11 33,17 66,17 42,0 63,-15 63,-46 l 0,-122 c 0,-36 -10,-64 -30,-84 L 442,47 C 390,-6 338,-33 285,-33 Z" /></g><g
       transform="scale(4.8828125e-4,-4.8828125e-4)"
       id="bullet-char-template(9679)"><path
         id="path34"
         d="M 813,0 C 632,0 489,54 383,161 276,268 223,411 223,592 c 0,181 53,324 160,431 106,107 249,161 430,161 179,0 323,-54 432,-161 108,-107 162,-251 162,-431 0,-180 -54,-324 -162,-431 C 1136,54 992,0 813,0 Z" /></g><g
       transform="scale(4.8828125e-4,-4.8828125e-4)"
       id="bullet-char-template(8226)"><path
         id="path37"
         d="m 346,457 c -73,0 -137,26 -191,78 -54,51 -81,114 -81,188 0,73 27,136 81,188 54,52 118,78 191,78 73,0 134,-26 185,-79 51,-51 77,-114 77,-187 0,-75 -25,-137 -76,-188 -50,-52 -112,-78 -186,-78 z" /></g><g
       transform="scale(4.8828125e-4,-4.8828125e-4)"
       id="bullet-char-template(8211)"><path
         id="path40"
         d="m -4,459 1139,0 0,147 -1139,0 0,-147 z" /></g></defs><defs
     id="defs42"
     class="TextEmbeddedBitmaps" /><g
     transform="translate(-46.2702,-15046.289)"
     id="g44"><g
       class="Master_Slide"
       id="id2"><g
         class="Background"
         id="bg-id2" /><g
         class="BackgroundObjects"
         id="bo-id2" /></g></g><g
     transform="translate(-4485.889,-3384.8894)"
     id="g49"
     class="SlideGroup"><g
       id="g51"><g
         clip-path="url(#presentation_clip_path)"
         class="Slide"
         id="id1"><g
           id="g54"
           class="Page"><g
             id="g56"
             class="com.sun.star.drawing.ClosedBezierShape"><g
               id="id3"><path
                 style="fill:#e91e63;stroke:none"
                 id="path59"
                 d="m 10700,3399 c 3515,0 6200,2793 6200,6450 0,3657 -2685,6450 -6200,6450 -3515,0 -6200,-2793 -6200,-6450 0,-3657 2685,-6450 6200,-6450 z m -6200,0 0,0 z m 12401,12901 0,0 z m -5992,-3568 c 257,0 505,-20 742,-60 237,-40 457,-93 660,-160 203,-66 386,-142 549,-229 162,-86 296,-176 400,-268 l 0,-1176 -2073,0 0,-1314 3701,0 0,3123 c -193,197 -426,385 -699,564 -273,178 -581,335 -923,470 -341,135 -714,242 -1118,322 -404,81 -833,121 -1287,121 -752,0 -1399,-110 -1941,-329 -543,-219 -989,-524 -1339,-916 -349,-392 -608,-857 -774,-1396 -167,-538 -251,-1127 -251,-1766 0,-663 89,-1262 266,-1797 177,-534 445,-990 805,-1365 359,-376 811,-666 1356,-869 545,-203 1185,-304 1920,-304 535,0 1010,52 1426,157 416,104 780,253 1091,446 312,193 573,425 784,696 211,272 379,576 503,914 l -1639,494 c -73,-177 -169,-345 -290,-503 -120,-159 -270,-298 -449,-416 -179,-119 -386,-213 -621,-284 -235,-70 -503,-105 -805,-105 -442,0 -824,69 -1145,208 -322,138 -587,336 -796,594 -209,257 -364,565 -464,925 -101,360 -151,763 -151,1209 0,442 51,848 154,1218 102,369 259,687 470,952 211,266 477,473 799,621 321,149 701,223 1139,223 z m -1266,-1016 0,-2853 c 0,-80 -1,-165 -2,-255 -1,-89 -3,-175 -7,-257 -3,-81 -6,-155 -9,-220 -2,-66 -5,-113 -10,-143 l 923,0 c 5,27 10,75 14,143 5,68 9,142 14,222 5,80 9,160 12,239 4,80 5,143 5,192 l 14,0 c 48,-136 97,-257 145,-364 48,-107 105,-197 170,-272 66,-75 144,-132 236,-172 92,-41 206,-61 341,-61 58,0 115,5 171,16 56,10 99,22 129,36 l 0,810 c -62,-14 -124,-26 -188,-36 -63,-11 -138,-16 -225,-16 -241,0 -429,98 -564,293 -134,195 -201,485 -201,868 l 0,1830 -968,0 z" /><path
                 style="fill:none;stroke:#e91e63"
                 id="path61"
                 d="m 10700,3399 c 3515,0 6200,2793 6200,6450 0,3657 -2685,6450 -6200,6450 -3515,0 -6200,-2793 -6200,-6450 0,-3657 2685,-6450 6200,-6450 z" /><path
                 style="fill:none;stroke:#e91e63"
                 id="path63"
                 d="m 4500,3399 0,0 z" /><path
                 style="fill:none;stroke:#e91e63"
                 id="path65"
                 d="m 16901,16300 0,0 z" /><path
                 style="fill:none;stroke:#e91e63"
                 id="path67"
                 d="m 10909,12732 c 257,0 505,-20 742,-60 237,-40 457,-93 660,-160 203,-66 386,-142 549,-229 162,-86 296,-176 400,-268 l 0,-1176 -2073,0 0,-1314 3701,0 0,3123 c -193,197 -426,385 -699,564 -273,178 -581,335 -923,470 -341,135 -714,242 -1118,322 -404,81 -833,121 -1287,121 -752,0 -1399,-110 -1941,-329 -543,-219 -989,-524 -1339,-916 -349,-392 -608,-857 -774,-1396 -167,-538 -251,-1127 -251,-1766 0,-663 89,-1262 266,-1797 177,-534 445,-990 805,-1365 359,-376 811,-666 1356,-869 545,-203 1185,-304 1920,-304 535,0 1010,52 1426,157 416,104 780,253 1091,446 312,193 573,425 784,696 211,272 379,576 503,914 l -1639,494 c -73,-177 -169,-345 -290,-503 -120,-159 -270,-298 -449,-416 -179,-119 -386,-213 -621,-284 -235,-70 -503,-105 -805,-105 -442,0 -824,69 -1145,208 -322,138 -587,336 -796,594 -209,257 -364,565 -464,925 -101,360 -151,763 -151,1209 0,442 51,848 154,1218 102,369 259,687 470,952 211,266 477,473 799,621 321,149 701,223 1139,223 z" /><path
                 style="fill:none;stroke:#e91e63"
                 id="path69"
                 d="m 9643,11716 0,-2853 c 0,-80 -1,-165 -2,-255 -1,-89 -3,-175 -7,-257 -3,-81 -6,-155 -9,-220 -2,-66 -5,-113 -10,-143 l 923,0 c 5,27 10,75 14,143 5,68 9,142 14,222 5,80 9,160 12,239 4,80 5,143 5,192 l 14,0 c 48,-136 97,-257 145,-364 48,-107 105,-197 170,-272 66,-75 144,-132 236,-172 92,-41 206,-61 341,-61 58,0 115,5 171,16 56,10 99,22 129,36 l 0,810 c -62,-14 -124,-26 -188,-36 -63,-11 -138,-16 -225,-16 -241,0 -429,98 -564,293 -134,195 -201,485 -201,868 l 0,1830 -968,0 z" /></g></g></g></g></g></g></svg>